<?xml version="1.0" standalone="no"?>
<!DOCTYPE svg PUBLIC "-//W3C//DTD SVG 20010904//EN"
 "http://www.w3.org/TR/2001/REC-SVG-20010904/DTD/svg10.dtd">
<svg version="1.0" xmlns="http://www.w3.org/2000/svg"
 width="360.000000pt" height="360.000000pt" viewBox="0 0 360.000000 360.000000"
 preserveAspectRatio="xMidYMid meet">

<g transform="translate(0.000000,360.000000) scale(0.100000,-0.100000)"
fill="#000000" stroke="none">
<path d="M1595 3038 c-11 -6 -38 -26 -60 -43 -75 -61 -100 -69 -232 -75 -117
-5 -123 -6 -160 -36 -21 -17 -56 -64 -79 -105 -47 -85 -96 -128 -184 -160
-108 -39 -139 -83 -151 -209 -10 -109 -31 -153 -110 -237 -58 -60 -59 -63 -60
-120 -2 -78 0 -93 19 -128 8 -16 17 -61 20 -100 3 -57 -1 -82 -20 -135 -18
-50 -23 -80 -20 -127 4 -59 6 -64 61 -122 76 -80 101 -132 107 -223 3 -40 10
-86 16 -103 19 -52 67 -93 142 -121 88 -34 143 -84 190 -174 54 -102 75 -114
221 -121 132 -6 165 -17 245 -84 87 -72 138 -75 265 -14 60 29 80 34 140 33
40 -1 87 -8 109 -18 21 -9 52 -16 69 -16 47 0 113 39 159 94 24 28 54 60 67
71 32 26 99 54 132 54 14 1 48 8 76 16 71 21 109 63 134 150 37 122 60 155
147 212 108 69 129 114 110 231 -16 96 -2 164 52 249 36 58 40 70 40 131 0 61
-3 72 -40 127 -53 80 -67 143 -52 243 18 119 -8 180 -101 235 -86 51 -114 94
-172 259 -21 62 -61 94 -132 108 -153 32 -163 37 -243 120 -111 114 -142 126
-264 94 -86 -23 -166 -15 -243 25 -49 24 -75 31 -120 31 -32 0 -67 -6 -78 -12z
m193 -138 c83 -39 141 -46 218 -26 117 30 153 20 227 -68 70 -81 108 -100 240
-121 59 -10 103 -55 127 -133 30 -99 58 -140 129 -191 104 -74 107 -81 103
-227 l-3 -124 33 -56 c18 -31 39 -65 45 -77 7 -12 13 -44 13 -71 0 -42 -7 -60
-42 -115 l-43 -65 0 -131 c0 -152 -8 -172 -88 -226 -28 -19 -62 -45 -76 -59
-28 -30 -71 -117 -71 -145 0 -12 -12 -40 -27 -63 -30 -45 -65 -64 -154 -80
-87 -17 -108 -28 -178 -101 -36 -38 -76 -74 -88 -80 -30 -15 -99 -14 -158 5
-67 20 -134 10 -215 -32 -98 -52 -125 -47 -234 40 -53 42 -100 55 -199 56 -57
0 -98 5 -116 15 -32 16 -81 70 -81 89 0 22 -58 95 -102 126 -22 17 -58 35 -80
40 -49 14 -104 62 -117 103 -5 18 -12 61 -16 97 -9 87 -22 114 -94 195 l-61
69 0 63 c0 42 6 72 16 89 27 41 30 149 5 212 -13 32 -21 75 -21 110 0 56 1 59
60 124 70 78 88 115 96 201 11 123 37 160 138 198 74 27 134 81 171 154 15 31
44 68 63 83 32 25 45 27 146 32 120 6 128 8 219 76 75 56 121 59 215 14z"/>
<path d="M1790 2590 c0 -5 5 -10 10 -10 6 0 10 5 10 10 0 6 -4 10 -10 10 -5 0
-10 -4 -10 -10z"/>
<path d="M2215 2570 c3 -5 8 -10 11 -10 2 0 4 5 4 10 0 6 -5 10 -11 10 -5 0
-7 -4 -4 -10z"/>
<path d="M1782 2521 c-7 -29 -7 -43 1 -48 6 -3 7 -1 3 5 -4 7 -3 12 3 12 6 0
8 7 5 15 -4 8 -1 15 5 15 6 0 11 -6 11 -14 0 -8 4 -17 10 -21 10 -6 -8 54 -20
68 -4 5 -12 -10 -18 -32z"/>
<path d="M1418 2494 c-3 -3 5 -17 19 -32 14 -15 33 -42 43 -61 16 -33 18 -34
24 -13 4 12 12 20 17 16 5 -3 7 -9 4 -14 -3 -5 5 -12 17 -16 26 -8 100 -54
110 -69 4 -5 10 -6 14 -3 3 4 -20 24 -52 44 -33 21 -61 40 -64 44 -3 3 -26 21
-52 38 -26 18 -53 41 -61 52 -8 11 -16 17 -19 14z m79 -96 c-3 -8 -6 -5 -6 6
-1 11 2 17 5 13 3 -3 4 -12 1 -19z"/>
<path d="M2156 2475 c-17 -26 -29 -35 -164 -124 -45 -29 -82 -58 -82 -64 0 -8
24 6 40 24 3 3 23 16 45 29 22 13 55 36 73 52 18 15 38 28 45 28 7 -1 6 -5 -4
-13 -9 -7 -14 -18 -11 -26 3 -9 0 -11 -8 -6 -8 5 -11 4 -7 -2 3 -5 -5 -32 -18
-60 l-23 -51 -151 0 c-112 -1 -151 2 -151 11 0 9 -2 9 -8 0 -5 -7 -29 -11 -65
-10 -31 2 -57 -1 -57 -5 0 -5 98 -8 218 -8 l218 0 43 88 c24 48 54 102 68 120
14 18 23 35 20 38 -2 3 -12 -7 -21 -21z"/>
<path d="M1195 2460 c3 -5 8 -10 11 -10 2 0 4 5 4 10 0 6 -5 10 -11 10 -5 0
-7 -4 -4 -10z"/>
<path d="M1736 2388 c-27 -76 -33 -107 -14 -74 13 23 49 139 44 143 -2 2 -15
-29 -30 -69z"/>
<path d="M1155 2430 c3 -5 8 -10 11 -10 2 0 4 5 4 10 0 6 -5 10 -11 10 -5 0
-7 -4 -4 -10z"/>
<path d="M1843 2402 c0 -22 3 -30 10 -23 7 7 7 18 0 33 -10 22 -11 21 -10 -10z"/>
<path d="M1860 2364 c0 -7 7 -27 15 -45 8 -19 14 -29 15 -23 0 7 -7 27 -15 45
-8 19 -14 29 -15 23z"/>
<path d="M1540 2351 c0 -6 4 -13 10 -16 6 -3 7 1 4 9 -7 18 -14 21 -14 7z"/>
<path d="M1510 2334 c0 -3 10 -23 23 -44 17 -31 28 -40 47 -39 24 2 24 2 2 6
-14 3 -30 19 -42 44 -18 35 -30 48 -30 33z"/>
<path d="M1589 2308 c12 -16 11 -18 -2 -18 -8 0 -18 6 -20 13 -4 7 -6 6 -6 -4
-1 -22 25 -31 38 -15 8 10 7 17 -6 27 -16 13 -17 12 -4 -3z"/>
<path d="M2000 2309 c-12 -9 -11 -10 7 -6 12 3 24 1 27 -4 2 -5 3 -4 2 3 -3
17 -18 20 -36 7z"/>
<path d="M1576 2205 c9 -22 439 -22 448 0 5 13 -24 15 -224 15 -200 0 -229 -2
-224 -15z"/>
<path d="M1957 2090 c4 -8 7 -35 8 -60 0 -43 1 -45 33 -48 20 -2 34 2 36 10 9
27 13 118 5 118 -4 0 -9 -26 -11 -57 -3 -50 -6 -58 -23 -58 -18 0 -20 6 -19
55 1 48 -2 56 -18 56 -13 0 -16 -5 -11 -16z"/>
<path d="M1371 2070 c8 -21 8 -39 0 -60 -9 -29 -9 -30 17 -29 15 0 21 3 15 6
-20 8 -15 33 6 33 28 0 53 38 40 62 -7 13 -21 18 -49 18 l-39 0 10 -30z m55 6
c16 -17 19 -30 4 -21 -5 3 -10 -1 -10 -9 0 -20 -19 -21 -26 -1 -6 16 1 45 11
45 4 0 13 -6 21 -14z"/>
<path d="M1479 2073 c4 -16 4 -43 0 -60 -6 -30 -5 -33 16 -33 18 0 21 4 17 25
-2 14 0 25 5 25 16 0 32 -22 26 -36 -4 -11 10 -14 71 -14 72 0 76 1 76 23 -1
20 -2 21 -14 5 -20 -27 -46 -23 -46 7 0 26 15 34 23 13 3 -7 6 -3 6 9 1 16 -3
21 -14 17 -10 -4 -15 0 -15 15 0 14 6 21 20 21 12 0 20 -7 20 -17 0 -12 3 -14
11 -6 19 19 0 33 -42 33 -39 0 -39 0 -38 -37 1 -34 2 -35 9 -13 4 14 8 18 9 9
1 -21 -22 -69 -34 -69 -16 0 -34 47 -23 58 6 6 7 19 3 31 -5 17 -14 21 -50 21
-42 0 -43 -1 -36 -27z m64 3 c5 -14 -10 -36 -25 -36 -4 0 -8 11 -8 25 0 27 24
35 33 11z"/>
<path d="M1715 2040 c0 -34 4 -60 10 -60 6 0 9 18 8 43 -2 23 0 36 3 29 3 -6
10 -10 15 -7 5 4 6 -2 2 -11 -4 -12 -3 -15 5 -10 8 4 10 2 6 -7 -3 -8 -1 -18
4 -21 6 -3 17 12 26 34 18 45 36 53 36 14 0 -14 -4 -23 -9 -20 -5 3 -8 -6 -8
-19 0 -16 5 -25 16 -25 13 0 16 11 16 60 0 51 -3 60 -18 60 -11 0 -22 -12 -28
-30 -6 -16 -14 -30 -19 -30 -4 0 -13 14 -20 30 -7 17 -20 30 -29 30 -13 0 -16
-11 -16 -60z"/>
<path d="M1878 2091 c8 -5 11 -18 7 -37 -4 -24 -4 -26 5 -9 8 16 9 14 5 -15
-3 -18 -11 -38 -18 -42 -8 -5 -3 -8 13 -8 24 0 25 3 25 60 0 57 -1 60 -25 60
-17 0 -21 -3 -12 -9z"/>
<path d="M2078 2040 c-3 -55 -1 -60 17 -59 11 0 14 3 8 6 -19 7 -17 73 2 73 9
0 12 -6 8 -17 -5 -12 -3 -14 7 -8 8 5 11 4 7 -3 -8 -12 1 -42 12 -42 5 0 14
18 21 40 7 22 17 40 21 40 8 0 4 -44 -7 -77 -2 -8 6 -13 19 -13 20 0 22 5 22
60 0 55 -2 60 -22 60 -16 0 -25 -9 -34 -37 l-12 -37 -19 37 c-28 56 -46 48
-50 -23z"/>
<path d="M1516 1891 c-10 -11 -14 -25 -10 -36 5 -13 4 -16 -5 -11 -8 6 -8 -1
2 -26 12 -29 18 -33 54 -36 38 -3 40 -2 36 22 -5 25 -35 47 -32 23 3 -26 -2
-37 -15 -37 -21 0 -20 96 1 104 9 4 17 -1 20 -14 7 -25 23 -26 23 -1 0 33 -47
41 -74 12z"/>
<path d="M1636 1891 c-10 -11 -14 -25 -10 -36 6 -14 4 -16 -6 -10 -7 5 -11 4
-9 -1 3 -5 11 -21 19 -36 26 -53 90 -27 90 36 0 56 -50 85 -84 47z m50 -8 c7
-10 13 -25 14 -33 0 -13 -1 -13 -10 0 -6 9 -10 10 -10 3 0 -6 5 -15 10 -18 14
-9 -7 -45 -25 -45 -11 0 -15 13 -15 48 0 63 11 77 36 45z"/>
<path d="M1760 1890 c-37 -37 -14 -110 34 -110 32 0 50 25 50 67 0 57 -46 81
-84 43z m50 -51 c0 -37 -4 -49 -15 -49 -12 0 -15 13 -15 55 0 44 3 53 15 49
11 -4 15 -21 15 -55z m17 -6 c-3 -10 -5 -4 -5 12 0 17 2 24 5 18 2 -7 2 -21 0
-30z m-70 -5 c-3 -7 -5 -2 -5 12 0 14 2 19 5 13 2 -7 2 -19 0 -25z"/>
<path d="M1875 1893 c16 -38 17 -54 7 -83 -11 -30 -11 -30 27 -30 47 0 65 19
65 67 0 43 -23 63 -72 63 -29 0 -33 -3 -27 -17z m63 -51 c-5 -69 -28 -67 -28
2 0 46 3 54 15 49 12 -4 15 -17 13 -51z m19 -9 c-3 -10 -5 -4 -5 12 0 17 2 24
5 18 2 -7 2 -21 0 -30z"/>
<path d="M2006 1894 c-21 -20 -4 -57 21 -47 12 5 14 3 8 -7 -5 -8 -4 -11 2 -7
14 9 24 -16 13 -33 -11 -17 -40 -5 -40 17 0 13 -3 14 -11 6 -7 -7 -9 -19 -5
-28 8 -22 65 -16 80 8 9 15 5 23 -21 47 -18 17 -33 32 -33 35 0 11 39 4 43 -7
3 -7 6 -3 6 10 1 17 -5 22 -23 22 -14 0 -32 -7 -40 -16z"/>
<path d="M2720 1780 c0 -5 5 -10 11 -10 5 0 7 5 4 10 -3 6 -8 10 -11 10 -2 0
-4 -4 -4 -10z"/>
<path d="M2700 1725 c-7 -9 -8 -15 -2 -15 5 0 12 7 16 15 3 8 4 15 2 15 -2 0
-9 -7 -16 -15z"/>
<path d="M1068 1670 c-16 -10 -18 -27 -18 -129 0 -136 -4 -131 93 -131 72 0
105 14 127 53 14 25 13 30 -3 59 -12 22 -15 34 -7 42 18 18 11 62 -15 86 -21
20 -39 25 -93 27 -37 2 -75 -1 -84 -7z m120 -64 c4 -20 -13 -36 -40 -36 -13 0
-18 8 -18 31 0 27 3 30 27 27 18 -2 29 -10 31 -22z m1 -90 c15 -17 5 -44 -20
-51 -27 -9 -39 2 -39 36 0 24 4 29 24 29 13 0 29 -6 35 -14z"/>
<path d="M1395 1673 c-53 -13 -95 -83 -95 -156 0 -65 17 -107 44 -107 27 0 46
18 46 42 0 14 8 18 34 18 30 0 35 -3 38 -27 2 -20 9 -29 26 -31 42 -6 52 13
52 104 0 81 -1 85 -32 118 -33 34 -74 49 -113 39z m59 -79 c3 -9 6 -29 6 -45
0 -27 -3 -29 -35 -29 -34 0 -35 1 -35 38 0 21 3 42 7 45 12 13 51 7 57 -9z"/>
<path d="M1581 1666 c-8 -9 -11 -52 -9 -126 3 -95 6 -115 21 -124 26 -17 50 4
61 52 15 67 56 54 56 -18 0 -16 7 -30 16 -34 64 -24 99 40 53 98 -20 25 -20
28 -5 45 10 11 16 35 16 64 0 37 -4 47 -20 52 -34 11 -60 -4 -60 -33 0 -51
-11 -73 -34 -70 -17 2 -22 11 -24 49 -2 39 -7 48 -25 53 -31 8 -33 8 -46 -8z"/>
<path d="M1846 1664 c-13 -12 -16 -38 -16 -118 0 -137 1 -138 115 -134 90 3
90 3 93 31 3 27 3 27 -57 27 -58 0 -61 1 -61 25 0 23 3 25 51 25 47 0 50 2 47
23 -3 19 -10 22 -50 25 -40 3 -48 6 -48 23 0 14 7 19 29 19 62 0 91 11 91 35
0 30 -16 35 -105 35 -54 0 -78 -4 -89 -16z"/>
<path d="M2088 1669 c-16 -9 -18 -26 -18 -123 0 -124 8 -144 54 -132 20 5 26
14 32 52 5 39 9 45 28 42 16 -2 23 -14 30 -46 11 -46 43 -65 71 -42 21 18 19
77 -4 96 -18 16 -18 17 0 35 39 39 14 101 -49 119 -47 13 -122 12 -144 -1z
m126 -54 c6 -17 -2 -45 -14 -45 -5 0 -15 -3 -24 -6 -13 -5 -16 1 -16 30 0 31
3 36 24 36 13 0 26 -7 30 -15z"/>
<path d="M2326 1664 c-24 -24 -20 -41 24 -93 32 -38 40 -55 40 -88 0 -56 8
-73 34 -73 33 0 46 19 46 67 0 36 7 53 40 94 44 56 50 83 21 99 -28 14 -30 14
-67 -27 l-34 -37 -34 37 c-38 41 -47 44 -70 21z"/>
<path d="M1611 1271 c-12 -8 -12 -12 -2 -25 10 -12 11 -26 3 -56 -9 -37 -8
-40 12 -40 20 0 21 4 18 65 -4 67 -6 71 -31 56z"/>
<path d="M1679 1259 c-18 -18 -19 -23 -6 -42 15 -23 67 -36 67 -17 0 7 -8 9
-21 5 -18 -6 -20 -3 -17 27 3 37 21 45 26 10 2 -12 8 -20 13 -17 17 11 9 -32
-9 -48 -21 -19 -42 -22 -42 -7 0 6 -4 10 -10 10 -5 0 -10 -7 -10 -15 0 -21 63
-20 81 1 20 24 16 84 -6 100 -26 19 -41 18 -66 -7z"/>
<path d="M1806 1264 c-9 -8 -16 -22 -16 -29 0 -20 28 -45 51 -45 13 0 19 7 19
23 -1 20 -2 20 -11 4 -13 -22 -29 -13 -29 17 0 32 10 39 32 19 27 -25 23 -67
-9 -84 -21 -11 -27 -11 -30 -1 -5 13 -23 7 -23 -9 0 -5 15 -9 34 -9 25 0 39 7
50 22 43 61 -18 143 -68 92z"/>
<path d="M1926 1258 c-20 -29 -20 -72 0 -92 31 -31 71 -16 80 30 12 66 -46
111 -80 62z m50 -5 c18 -24 17 -61 -2 -80 -25 -25 -35 10 -25 90 2 12 13 8 27
-10z m-49 -50 c-3 -10 -5 -4 -5 12 0 17 2 24 5 18 2 -7 2 -21 0 -30z"/>
<path d="M1525 1200 c-3 -5 3 -10 14 -10 12 0 21 5 21 10 0 6 -6 10 -14 10 -8
0 -18 -4 -21 -10z"/>
<path d="M2035 1200 c-3 -5 3 -10 14 -10 11 0 23 5 26 10 3 6 -3 10 -14 10
-11 0 -23 -4 -26 -10z"/>
<path d="M1210 1129 c0 -5 5 -7 10 -4 6 3 10 8 10 11 0 2 -4 4 -10 4 -5 0 -10
-5 -10 -11z"/>
</g>
</svg>
